<svg width="21" height="23" viewBox="0 0 21 23" fill="none" xmlns="http://www.w3.org/2000/svg">
<path fill-rule="evenodd" clip-rule="evenodd" d="M16.406 3.025H19.251C20.217 3.025 21 3.847 21 4.862V21.164C21 22.179 20.217 23 19.251 23H1.75C0.784 23 0 22.179 0 21.164V4.862C0 3.847 0.784 3.025 1.75 3.025H4.593V1.648C4.593 1.267 4.887 0.959 5.25 0.959C5.612 0.959 5.906 1.267 5.906 1.648V3.025H9.844V1.648C9.844 1.267 10.138 0.959 10.501 0.959C10.862 0.959 11.156 1.267 11.156 1.648V3.025H15.094V1.648C15.094 1.267 15.387 0.959 15.75 0.959C16.112 0.959 16.406 1.267 16.406 1.648V3.025ZM19.5646 21.484C19.6466 21.398 19.691 21.2828 19.688 21.164H19.689V4.862C19.689 4.609 19.493 4.403 19.252 4.403H16.407V5.781C16.407 6.162 16.113 6.47 15.751 6.47C15.388 6.47 15.095 6.162 15.095 5.781V4.403H11.157V5.781C11.157 6.162 10.863 6.47 10.502 6.47C10.139 6.47 9.845 6.162 9.845 5.781V4.403H5.907V5.781C5.907 6.162 5.613 6.47 5.251 6.47C4.888 6.47 4.594 6.162 4.594 5.781V4.403H1.75C1.50263 4.40955 1.30696 4.6146 1.312 4.862V21.164C1.30696 21.4114 1.50263 21.6165 1.75 21.623H19.251C19.3698 21.6201 19.4826 21.5701 19.5646 21.484Z" fill="#A9A9A9"/>
<path fill-rule="evenodd" clip-rule="evenodd" d="M4.59399 9.225H7.21899V11.291H4.59399V9.225ZM4.59399 12.668H7.21899V14.735H4.59399V12.668ZM7.21899 16.112H4.59399V18.178H7.21899V16.112ZM9.18799 16.112H11.813V18.178H9.18799V16.112ZM11.813 12.668H9.18799V14.735H11.813V12.668ZM9.18799 9.225H11.813V11.291H9.18799V9.225ZM16.406 16.112H13.781V18.178H16.406V16.112ZM13.781 12.668H16.406V14.735H13.781V12.668ZM16.406 9.225H13.781V11.291H16.406V9.225Z" fill="#A9A9A9"/>
</svg>
